<?xml version="1.0" standalone="no"?>
<!DOCTYPE svg PUBLIC "-//W3C//DTD SVG 20010904//EN"
 "http://www.w3.org/TR/2001/REC-SVG-20010904/DTD/svg10.dtd">
<svg version="1.0" xmlns="http://www.w3.org/2000/svg"
 width="500.000000pt" height="500.000000pt" viewBox="0 0 500.000000 500.000000"
 preserveAspectRatio="xMidYMid meet">
<metadata>
Created by potrace 1.16, written by Peter Selinger 2001-2019
</metadata>
<g transform="translate(0.000000,500.000000) scale(0.100000,-0.100000)"
fill="#000000" stroke="none">
<path d="M2270 3342 c0 -4 30 -61 68 -127 l67 -120 380 -5 c275 -4 388 -9 410
-19 80 -33 110 -100 103 -228 -7 -134 -43 -183 -149 -203 -28 -6 -220 -10
-425 -10 -428 0 -460 -4 -516 -60 -44 -44 -48 -76 -17 -127 40 -65 53 -67 360
-71 l276 -4 80 -136 c45 -76 138 -237 208 -359 l128 -223 132 0 133 0 -169
308 c-163 297 -169 309 -169 365 l0 58 45 19 c235 101 390 358 332 551 -45
146 -155 278 -287 342 -41 21 -99 42 -129 47 -63 12 -861 14 -861 2z"/>
<path d="M1940 3259 c-251 -136 -419 -347 -480 -601 -58 -243 24 -510 226
-727 76 -83 161 -144 268 -196 161 -77 170 -78 618 -82 l398 -5 -74 129 -74
128 -343 6 c-211 4 -361 11 -389 18 -170 45 -328 209 -377 392 -24 90 -23 283
1 364 55 183 188 319 376 383 l49 17 -60 105 c-34 58 -62 106 -63 107 -1 1
-35 -16 -76 -38z"/>
</g>
</svg>
